# xmcd
#
# Track frame offsets: 
#        150
#        13639
#        29507
#        44675
#        59584
#        75016
#        87186
#        104355
#        118041
#        132002
#        161774
#
# Disc length: 2165 seconds
#
# Revision: 2
# Processed by: cddbd v1.5.2PL0 Copyright (c) Steve Scherf et al.
# Submitted via: ExactAudioCopyFreeDBPlugin 1.0
#
DISCID=8708730b
DTITLE=Menahan Street Band - Make The Road By Walking
DYEAR=2008
DGENRE=Soul
TTITLE0=Make The Road By Walking
TTITLE1=Tired of Fighting
TTITLE2=Home Again
TTITLE3=Montego Sunset
TTITLE4=Karina
TTITLE5=The Traitor
TTITLE6=The Contender
TTITLE7=Birds
TTITLE8=Esma
TTITLE9=Going The Distance
TTITLE10=(Untitled)
EXTD=
EXTT0=
EXTT1=
EXTT2=
EXTT3=
EXTT4=
EXTT5=
EXTT6=
EXTT7=
EXTT8=
EXTT9=
EXTT10=
PLAYORDER=
